<svg width="40" height="40" viewBox="0 0 40 40" fill="none" xmlns="http://www.w3.org/2000/svg">
<rect x="0.5" y="0.5" width="39" height="39" rx="3.5" fill="white"/>
<rect x="0.5" y="0.5" width="39" height="39" rx="3.5" stroke="black"/>
<path d="M17.6924 17.4615C18.2447 17.4615 18.6924 17.9092 18.6924 18.4615V24.6154C18.6924 25.1677 18.2447 25.6154 17.6924 25.6154C17.1401 25.6154 16.6924 25.1677 16.6924 24.6154V18.4615C16.6924 17.9092 17.1401 17.4615 17.6924 17.4615Z" fill="#0C0C0C"/>
<path d="M23.3076 18.4615C23.3076 17.9092 22.8599 17.4615 22.3076 17.4615C21.7553 17.4615 21.3076 17.9092 21.3076 18.4615V24.6154C21.3076 25.1677 21.7553 25.6154 22.3076 25.6154C22.8599 25.6154 23.3076 25.1677 23.3076 24.6154V18.4615Z" fill="#0C0C0C"/>
<path fill-rule="evenodd" clip-rule="evenodd" d="M17.6923 9.76923C17.019 9.76923 16.3734 10.0367 15.8973 10.5127C15.4213 10.9888 15.1538 11.6344 15.1538 12.3077V12.8461H10C9.44772 12.8461 9 13.2939 9 13.8461C9 14.3984 9.44772 14.8461 10 14.8461H12.0771V27.6923C12.0771 28.3655 12.3446 29.0112 12.8206 29.4873C13.2967 29.9633 13.9424 30.2308 14.6156 30.2308H25.3848C26.0581 30.2308 26.7038 29.9633 27.1798 29.4873C27.6559 29.0112 27.9233 28.3655 27.9233 27.6923V14.8461H30C30.5523 14.8461 31 14.3984 31 13.8461C31 13.2939 30.5523 12.8461 30 12.8461H24.8461V12.3077C24.8461 11.6344 24.5787 10.9888 24.1026 10.5127C23.6266 10.0367 22.9809 9.76923 22.3077 9.76923H17.6923ZM22.8461 12.8461V12.3077C22.8461 12.1649 22.7894 12.0279 22.6884 11.9269C22.5874 11.826 22.4505 11.7692 22.3077 11.7692H17.6923C17.5495 11.7692 17.4125 11.826 17.3115 11.9269C17.2105 12.0279 17.1538 12.1649 17.1538 12.3077V12.8461H22.8461ZM14.0771 14.8461V27.6923C14.0771 27.8351 14.1339 27.9721 14.2349 28.0731C14.3358 28.174 14.4728 28.2308 14.6156 28.2308H25.3848C25.5276 28.2308 25.6646 28.174 25.7656 28.0731C25.8666 27.9721 25.9233 27.8351 25.9233 27.6923V14.8461H14.0771Z" fill="#0C0C0C"/>
</svg>
