<svg width="209" height="20" viewBox="0 0 209 20" fill="none" xmlns="http://www.w3.org/2000/svg">
<path d="M3.546 5.704C4.074 5.704 4.506 5.866 4.842 6.19C5.19 6.502 5.364 6.892 5.364 7.36C5.364 7.84 5.19 8.242 4.842 8.566C4.506 8.89 4.074 9.052 3.546 9.052C3.006 9.052 2.562 8.89 2.214 8.566C1.878 8.242 1.71 7.84 1.71 7.36C1.71 6.892 1.878 6.502 2.214 6.19C2.562 5.866 3.006 5.704 3.546 5.704ZM2.196 10.312H4.806L5.166 18.934H1.836L2.196 10.312ZM15.8148 9.52C16.5468 9.676 17.1348 10.042 17.5788 10.618C18.0228 11.182 18.2448 11.83 18.2448 12.562C18.2448 13.618 17.8728 14.458 17.1288 15.082C16.3968 15.694 15.3708 16 14.0508 16H8.16483V3.364H13.8528C15.1368 3.364 16.1388 3.658 16.8588 4.246C17.5908 4.834 17.9568 5.632 17.9568 6.64C17.9568 7.384 17.7588 8.002 17.3628 8.494C16.9788 8.986 16.4628 9.328 15.8148 9.52ZM11.2428 8.476H13.2588C13.7628 8.476 14.1468 8.368 14.4108 8.152C14.6868 7.924 14.8248 7.594 14.8248 7.162C14.8248 6.73 14.6868 6.4 14.4108 6.172C14.1468 5.944 13.7628 5.83 13.2588 5.83H11.2428V8.476ZM13.5108 13.516C14.0268 13.516 14.4228 13.402 14.6988 13.174C14.9868 12.934 15.1308 12.592 15.1308 12.148C15.1308 11.704 14.9808 11.356 14.6808 11.104C14.3928 10.852 13.9908 10.726 13.4748 10.726H11.2428V13.516H13.5108ZM21.5781 4.912C21.0381 4.912 20.5941 4.756 20.2461 4.444C19.9101 4.12 19.7421 3.724 19.7421 3.256C19.7421 2.776 19.9101 2.38 20.2461 2.068C20.5941 1.744 21.0381 1.582 21.5781 1.582C22.1061 1.582 22.5381 1.744 22.8741 2.068C23.2221 2.38 23.3961 2.776 23.3961 3.256C23.3961 3.724 23.2221 4.12 22.8741 4.444C22.5381 4.756 22.1061 4.912 21.5781 4.912ZM23.1081 5.956V16H20.0301V5.956H23.1081ZM34.8067 10.816C34.8067 11.104 34.7887 11.404 34.7527 11.716H27.7867C27.8347 12.34 28.0327 12.82 28.3807 13.156C28.7407 13.48 29.1787 13.642 29.6947 13.642C30.4627 13.642 30.9967 13.318 31.2967 12.67H34.5727C34.4047 13.33 34.0987 13.924 33.6547 14.452C33.2227 14.98 32.6767 15.394 32.0167 15.694C31.3567 15.994 30.6187 16.144 29.8027 16.144C28.8187 16.144 27.9427 15.934 27.1747 15.514C26.4067 15.094 25.8067 14.494 25.3747 13.714C24.9427 12.934 24.7267 12.022 24.7267 10.978C24.7267 9.934 24.9367 9.022 25.3567 8.242C25.7887 7.462 26.3887 6.862 27.1567 6.442C27.9247 6.022 28.8067 5.812 29.8027 5.812C30.7747 5.812 31.6387 6.016 32.3947 6.424C33.1507 6.832 33.7387 7.414 34.1587 8.17C34.5907 8.926 34.8067 9.808 34.8067 10.816ZM31.6567 10.006C31.6567 9.478 31.4767 9.058 31.1167 8.746C30.7567 8.434 30.3067 8.278 29.7667 8.278C29.2507 8.278 28.8127 8.428 28.4527 8.728C28.1047 9.028 27.8887 9.454 27.8047 10.006H31.6567ZM42.5505 5.848C43.7265 5.848 44.6625 6.232 45.3585 7C46.0665 7.756 46.4205 8.8 46.4205 10.132V16H43.3605V10.546C43.3605 9.874 43.1865 9.352 42.8385 8.98C42.4905 8.608 42.0225 8.422 41.4345 8.422C40.8465 8.422 40.3785 8.608 40.0305 8.98C39.6825 9.352 39.5085 9.874 39.5085 10.546V16H36.4305V5.956H39.5085V7.288C39.8205 6.844 40.2405 6.496 40.7685 6.244C41.2965 5.98 41.8905 5.848 42.5505 5.848ZM53.0774 13.12L55.2554 5.956H58.5314L54.9674 16H51.1694L47.6054 5.956H50.8994L53.0774 13.12ZM69.2949 10.816C69.2949 11.104 69.2769 11.404 69.2409 11.716H62.2749C62.3229 12.34 62.5209 12.82 62.8689 13.156C63.2289 13.48 63.6669 13.642 64.1829 13.642C64.9509 13.642 65.4849 13.318 65.7849 12.67H69.0609C68.8929 13.33 68.5869 13.924 68.1429 14.452C67.7109 14.98 67.1649 15.394 66.5049 15.694C65.8449 15.994 65.1069 16.144 64.2909 16.144C63.3069 16.144 62.4309 15.934 61.6629 15.514C60.8949 15.094 60.2949 14.494 59.8629 13.714C59.4309 12.934 59.2149 12.022 59.2149 10.978C59.2149 9.934 59.4249 9.022 59.8449 8.242C60.2769 7.462 60.8769 6.862 61.6449 6.442C62.4129 6.022 63.2949 5.812 64.2909 5.812C65.2629 5.812 66.1269 6.016 66.8829 6.424C67.6389 6.832 68.2269 7.414 68.6469 8.17C69.0789 8.926 69.2949 9.808 69.2949 10.816ZM66.1449 10.006C66.1449 9.478 65.9649 9.058 65.6049 8.746C65.2449 8.434 64.7949 8.278 64.2549 8.278C63.7389 8.278 63.3009 8.428 62.9409 8.728C62.5929 9.028 62.3769 9.454 62.2929 10.006H66.1449ZM77.0387 5.848C78.2147 5.848 79.1507 6.232 79.8467 7C80.5547 7.756 80.9087 8.8 80.9087 10.132V16H77.8487V10.546C77.8487 9.874 77.6747 9.352 77.3267 8.98C76.9787 8.608 76.5107 8.422 75.9227 8.422C75.3347 8.422 74.8667 8.608 74.5187 8.98C74.1707 9.352 73.9967 9.874 73.9967 10.546V16H70.9187V5.956H73.9967V7.288C74.3087 6.844 74.7287 6.496 75.2567 6.244C75.7847 5.98 76.3787 5.848 77.0387 5.848ZM84.5956 4.912C84.0556 4.912 83.6116 4.756 83.2636 4.444C82.9276 4.12 82.7596 3.724 82.7596 3.256C82.7596 2.776 82.9276 2.38 83.2636 2.068C83.6116 1.744 84.0556 1.582 84.5956 1.582C85.1236 1.582 85.5556 1.744 85.8916 2.068C86.2396 2.38 86.4136 2.776 86.4136 3.256C86.4136 3.724 86.2396 4.12 85.8916 4.444C85.5556 4.756 85.1236 4.912 84.5956 4.912ZM86.1256 5.956V16H83.0476V5.956H86.1256ZM87.7442 10.96C87.7442 9.928 87.9362 9.022 88.3202 8.242C88.7162 7.462 89.2502 6.862 89.9222 6.442C90.5942 6.022 91.3442 5.812 92.1722 5.812C92.8322 5.812 93.4322 5.95 93.9722 6.226C94.5242 6.502 94.9562 6.874 95.2682 7.342V2.68H98.3462V16H95.2682V14.56C94.9802 15.04 94.5662 15.424 94.0262 15.712C93.4982 16 92.8802 16.144 92.1722 16.144C91.3442 16.144 90.5942 15.934 89.9222 15.514C89.2502 15.082 88.7162 14.476 88.3202 13.696C87.9362 12.904 87.7442 11.992 87.7442 10.96ZM95.2682 10.978C95.2682 10.21 95.0522 9.604 94.6202 9.16C94.2002 8.716 93.6842 8.494 93.0722 8.494C92.4602 8.494 91.9382 8.716 91.5062 9.16C91.0862 9.592 90.8762 10.192 90.8762 10.96C90.8762 11.728 91.0862 12.34 91.5062 12.796C91.9382 13.24 92.4602 13.462 93.0722 13.462C93.6842 13.462 94.2002 13.24 94.6202 12.796C95.0522 12.352 95.2682 11.746 95.2682 10.978ZM105.145 16.144C104.161 16.144 103.273 15.934 102.481 15.514C101.701 15.094 101.083 14.494 100.627 13.714C100.183 12.934 99.961 12.022 99.961 10.978C99.961 9.946 100.189 9.04 100.645 8.26C101.101 7.468 101.725 6.862 102.517 6.442C103.309 6.022 104.197 5.812 105.181 5.812C106.165 5.812 107.053 6.022 107.845 6.442C108.637 6.862 109.261 7.468 109.717 8.26C110.173 9.04 110.401 9.946 110.401 10.978C110.401 12.01 110.167 12.922 109.699 13.714C109.243 14.494 108.613 15.094 107.809 15.514C107.017 15.934 106.129 16.144 105.145 16.144ZM105.145 13.48C105.733 13.48 106.231 13.264 106.639 12.832C107.059 12.4 107.269 11.782 107.269 10.978C107.269 10.174 107.065 9.556 106.657 9.124C106.261 8.692 105.769 8.476 105.181 8.476C104.581 8.476 104.083 8.692 103.687 9.124C103.291 9.544 103.093 10.162 103.093 10.978C103.093 11.782 103.285 12.4 103.669 12.832C104.065 13.264 104.557 13.48 105.145 13.48ZM115.236 10.96C115.236 9.928 115.428 9.022 115.812 8.242C116.208 7.462 116.742 6.862 117.414 6.442C118.086 6.022 118.836 5.812 119.664 5.812C120.324 5.812 120.924 5.95 121.464 6.226C122.016 6.502 122.448 6.874 122.76 7.342V2.68H125.838V16H122.76V14.56C122.472 15.04 122.058 15.424 121.518 15.712C120.99 16 120.372 16.144 119.664 16.144C118.836 16.144 118.086 15.934 117.414 15.514C116.742 15.082 116.208 14.476 115.812 13.696C115.428 12.904 115.236 11.992 115.236 10.96ZM122.76 10.978C122.76 10.21 122.544 9.604 122.112 9.16C121.692 8.716 121.176 8.494 120.564 8.494C119.952 8.494 119.43 8.716 118.998 9.16C118.578 9.592 118.368 10.192 118.368 10.96C118.368 11.728 118.578 12.34 118.998 12.796C119.43 13.24 119.952 13.462 120.564 13.462C121.176 13.462 121.692 13.24 122.112 12.796C122.544 12.352 122.76 11.746 122.76 10.978ZM137.533 10.816C137.533 11.104 137.515 11.404 137.479 11.716H130.513C130.561 12.34 130.759 12.82 131.107 13.156C131.467 13.48 131.905 13.642 132.421 13.642C133.189 13.642 133.723 13.318 134.023 12.67H137.299C137.131 13.33 136.825 13.924 136.381 14.452C135.949 14.98 135.403 15.394 134.743 15.694C134.083 15.994 133.345 16.144 132.529 16.144C131.545 16.144 130.669 15.934 129.901 15.514C129.133 15.094 128.533 14.494 128.101 13.714C127.669 12.934 127.453 12.022 127.453 10.978C127.453 9.934 127.663 9.022 128.083 8.242C128.515 7.462 129.115 6.862 129.883 6.442C130.651 6.022 131.533 5.812 132.529 5.812C133.501 5.812 134.365 6.016 135.121 6.424C135.877 6.832 136.465 7.414 136.885 8.17C137.317 8.926 137.533 9.808 137.533 10.816ZM134.383 10.006C134.383 9.478 134.203 9.058 133.843 8.746C133.483 8.434 133.033 8.278 132.493 8.278C131.977 8.278 131.539 8.428 131.179 8.728C130.831 9.028 130.615 9.454 130.531 10.006H134.383ZM147.489 13.12L149.667 5.956H152.943L149.379 16H145.581L142.017 5.956H145.311L147.489 13.12ZM164.157 5.956V16H161.079V14.632C160.767 15.076 160.341 15.436 159.801 15.712C159.273 15.976 158.685 16.108 158.037 16.108C157.269 16.108 156.591 15.94 156.003 15.604C155.415 15.256 154.959 14.758 154.635 14.11C154.311 13.462 154.149 12.7 154.149 11.824V5.956H157.209V11.41C157.209 12.082 157.383 12.604 157.731 12.976C158.079 13.348 158.547 13.534 159.135 13.534C159.735 13.534 160.209 13.348 160.557 12.976C160.905 12.604 161.079 12.082 161.079 11.41V5.956H164.157ZM175.836 10.816C175.836 11.104 175.818 11.404 175.782 11.716H168.816C168.864 12.34 169.062 12.82 169.41 13.156C169.77 13.48 170.208 13.642 170.724 13.642C171.492 13.642 172.026 13.318 172.326 12.67H175.602C175.434 13.33 175.128 13.924 174.684 14.452C174.252 14.98 173.706 15.394 173.046 15.694C172.386 15.994 171.648 16.144 170.832 16.144C169.848 16.144 168.972 15.934 168.204 15.514C167.436 15.094 166.836 14.494 166.404 13.714C165.972 12.934 165.756 12.022 165.756 10.978C165.756 9.934 165.966 9.022 166.386 8.242C166.818 7.462 167.418 6.862 168.186 6.442C168.954 6.022 169.836 5.812 170.832 5.812C171.804 5.812 172.668 6.016 173.424 6.424C174.18 6.832 174.768 7.414 175.188 8.17C175.62 8.926 175.836 9.808 175.836 10.816ZM172.686 10.006C172.686 9.478 172.506 9.058 172.146 8.746C171.786 8.434 171.336 8.278 170.796 8.278C170.28 8.278 169.842 8.428 169.482 8.728C169.134 9.028 168.918 9.454 168.834 10.006H172.686ZM180.538 2.68V16H177.46V2.68H180.538ZM188.366 13.39V16H186.8C185.684 16 184.814 15.73 184.19 15.19C183.566 14.638 183.254 13.744 183.254 12.508V8.512H182.03V5.956H183.254V3.508H186.332V5.956H188.348V8.512H186.332V12.544C186.332 12.844 186.404 13.06 186.548 13.192C186.692 13.324 186.932 13.39 187.268 13.39H188.366ZM189.469 10.96C189.469 9.928 189.661 9.022 190.045 8.242C190.441 7.462 190.975 6.862 191.647 6.442C192.319 6.022 193.069 5.812 193.897 5.812C194.605 5.812 195.223 5.956 195.751 6.244C196.291 6.532 196.705 6.91 196.993 7.378V5.956H200.071V16H196.993V14.578C196.693 15.046 196.273 15.424 195.733 15.712C195.205 16 194.587 16.144 193.879 16.144C193.063 16.144 192.319 15.934 191.647 15.514C190.975 15.082 190.441 14.476 190.045 13.696C189.661 12.904 189.469 11.992 189.469 10.96ZM196.993 10.978C196.993 10.21 196.777 9.604 196.345 9.16C195.925 8.716 195.409 8.494 194.797 8.494C194.185 8.494 193.663 8.716 193.231 9.16C192.811 9.592 192.601 10.192 192.601 10.96C192.601 11.728 192.811 12.34 193.231 12.796C193.663 13.24 194.185 13.462 194.797 13.462C195.409 13.462 195.925 13.24 196.345 12.796C196.777 12.352 196.993 11.746 196.993 10.978ZM206.348 2.914L205.988 11.536H203.378L203.018 2.914H206.348ZM204.728 16.144C204.188 16.144 203.744 15.988 203.396 15.676C203.06 15.352 202.892 14.956 202.892 14.488C202.892 14.008 203.06 13.606 203.396 13.282C203.744 12.958 204.188 12.796 204.728 12.796C205.256 12.796 205.688 12.958 206.024 13.282C206.372 13.606 206.546 14.008 206.546 14.488C206.546 14.956 206.372 15.352 206.024 15.676C205.688 15.988 205.256 16.144 204.728 16.144Z" fill="#E3026F"/>
</svg>
